<svg width="164" height="303" viewBox="0 0 164 303" fill="none" xmlns="http://www.w3.org/2000/svg">
<path d="M141.019 75.2943L16.126 152.391C15.3999 152.826 14.5797 153.081 13.7347 153.132C12.8896 153.184 12.0445 153.032 11.2706 152.689C10.4968 152.345 9.81686 151.821 9.28831 151.159C8.75977 150.498 8.39813 149.719 8.23385 148.889L3.30126 134.979C-3.35774 115.791 3.59718 92.6571 18.8389 83.2358L151.427 1.50278C152.162 1.07975 152.988 0.836788 153.835 0.793778C154.682 0.750768 155.528 0.908923 156.302 1.25531C157.077 1.60169 157.758 2.12654 158.291 2.7868C158.824 3.44707 159.193 4.22402 159.368 5.05425L160.947 9.59229C169.135 33.91 160.306 63.3574 141.019 75.2943Z" fill="#14213D"/>
<path d="M141.019 149.826L16.126 226.971C15.3943 227.395 14.5721 227.639 13.7275 227.683C12.8829 227.726 12.0401 227.567 11.2688 227.22C10.4976 226.873 9.82014 226.347 9.29238 225.687C8.76461 225.026 8.40176 224.249 8.23385 223.42L3.30126 209.51C-3.35774 190.372 3.59718 167.188 18.8389 157.767L151.427 76.0343C152.162 75.6113 152.988 75.3683 153.835 75.3253C154.682 75.2823 155.528 75.4405 156.302 75.7869C157.077 76.1332 157.758 76.6579 158.291 77.3182C158.824 77.9785 159.193 78.7556 159.368 79.5858L160.947 84.1237C169.135 108.491 160.306 137.889 141.019 149.826Z" fill="#14213D"/>
<path d="M141.019 224.357L16.126 301.503C15.3943 301.927 14.5721 302.171 13.7275 302.214C12.8829 302.257 12.0401 302.099 11.2688 301.752C10.4976 301.405 9.82014 300.879 9.29238 300.218C8.76461 299.557 8.40176 298.78 8.23385 297.951L3.30126 284.042C-3.35774 264.903 3.59718 241.72 18.8389 232.299L151.427 150.615C152.157 150.181 152.98 149.927 153.828 149.876C154.676 149.824 155.523 149.976 156.3 150.319C157.078 150.662 157.762 151.185 158.295 151.846C158.829 152.507 159.197 153.285 159.368 154.117L160.947 158.655C169.135 183.022 160.306 212.42 141.019 224.357Z" fill="#14213D"/>
</svg>
