<?xml version="1.0"?>
<svg xmlns="http://www.w3.org/2000/svg" xmlns:xlink="http://www.w3.org/1999/xlink" xmlns:svgjs="http://svgjs.com/svgjs" version="1.1" width="512" height="512" x="0" y="0" viewBox="0 0 490.667 490.667" style="enable-background:new 0 0 512 512" xml:space="preserve" class=""><g>
<path xmlns="http://www.w3.org/2000/svg" style="" d="M245.333,0C109.839,0,0,109.839,0,245.333s109.839,245.333,245.333,245.333  s245.333-109.839,245.333-245.333C490.514,109.903,380.764,0.153,245.333,0z" fill="#fca311" data-original="#ffc107" class=""/>
<path xmlns="http://www.w3.org/2000/svg" style="" d="M252.885,66.944c-4.234-3.996-10.849-3.996-15.083,0L88.469,216.448  c-4.171,4.16-4.179,10.914-0.019,15.085c2.001,2.006,4.717,3.133,7.55,3.134h74.667v159.829c0,5.891,4.776,10.667,10.667,10.667h128  c5.891,0,10.667-4.776,10.667-10.667V234.667h74.667c5.891,0.011,10.675-4.757,10.686-10.648c0.005-2.84-1.123-5.565-3.134-7.571  L252.885,66.944z" fill="#fafafa" data-original="#fafafa" class=""/>
<g xmlns="http://www.w3.org/2000/svg">
</g>
<g xmlns="http://www.w3.org/2000/svg">
</g>
<g xmlns="http://www.w3.org/2000/svg">
</g>
<g xmlns="http://www.w3.org/2000/svg">
</g>
<g xmlns="http://www.w3.org/2000/svg">
</g>
<g xmlns="http://www.w3.org/2000/svg">
</g>
<g xmlns="http://www.w3.org/2000/svg">
</g>
<g xmlns="http://www.w3.org/2000/svg">
</g>
<g xmlns="http://www.w3.org/2000/svg">
</g>
<g xmlns="http://www.w3.org/2000/svg">
</g>
<g xmlns="http://www.w3.org/2000/svg">
</g>
<g xmlns="http://www.w3.org/2000/svg">
</g>
<g xmlns="http://www.w3.org/2000/svg">
</g>
<g xmlns="http://www.w3.org/2000/svg">
</g>
<g xmlns="http://www.w3.org/2000/svg">
</g>
</g></svg>
